<?xml version="1.0" encoding="iso-8859-1"?>
<!-- Uploaded to: SVG Repo, www.svgrepo.com, Generator: SVG Repo Mixer Tools -->
<svg fill="#000000" height="800px" width="800px" version="1.1" id="Layer_1" xmlns="http://www.w3.org/2000/svg" xmlns:xlink="http://www.w3.org/1999/xlink" 
	 viewBox="0 0 512 512" xml:space="preserve">
<g>
	<g>
		<polygon points="116.938,303.407 88.494,360.296 237.037,360.296 237.037,303.407 		"/>
	</g>
</g>
<g>
	<g>
		<polygon points="395.062,303.407 274.963,303.407 274.963,360.296 423.506,360.296 		"/>
	</g>
</g>
<g>
	<g>
		<polygon points="69.531,398.222 41.086,455.111 97.975,455.111 97.975,512 135.901,512 135.901,455.111 237.037,455.111 
			237.037,398.222 		"/>
	</g>
</g>
<g>
	<g>
		<polygon points="442.469,398.222 274.963,398.222 274.963,455.111 376.099,455.111 376.099,512 414.025,512 414.025,455.111 
			470.914,455.111 		"/>
	</g>
</g>
<g>
	<g>
		<path d="M340.351,153.223c2.684-8.456,4.143-17.459,4.143-26.804c0-9.345-1.459-18.347-4.144-26.803l34.614-19.984l-18.963-32.844
			L321.372,66.78c-12.114-13.27-28.218-22.823-46.41-26.796V0h-37.926v39.984c-18.192,3.973-34.296,13.526-46.41,26.796
			l-34.628-19.992l-18.963,32.844l34.614,19.984c-2.685,8.456-4.144,17.459-4.144,26.804c0,9.345,1.459,18.347,4.144,26.804
			l-34.614,19.984l18.963,32.844l34.629-19.992c12.114,13.27,28.218,22.823,46.41,26.796v39.984h37.926v-39.984
			c18.192-3.973,34.296-13.526,46.41-26.796l34.629,19.992l18.963-32.844L340.351,153.223z"/>
	</g>
</g>
</svg>